<svg width="25" height="25" viewBox="0 0 25 25" fill="none" xmlns="http://www.w3.org/2000/svg">
<g clip-path="url(#clip0_5_35)">
<path d="M11.3428 23.1291C11.6538 23.4401 12.0718 23.6134 12.5102 23.6134C12.9435 23.6134 13.3717 23.435 13.6776 23.1291L22.8385 13.9682C24.2302 12.5765 24.9949 10.7259 25 8.76326C25 6.79548 24.2353 4.94495 22.8436 3.55323C21.4519 2.1615 19.6064 1.39682 17.6387 1.39682C15.7066 1.39682 13.8866 2.13602 12.5051 3.48186C11.1185 2.13092 9.29343 1.38663 7.35624 1.38663C5.39356 1.38663 3.54812 2.15131 2.1564 3.53793C0.764682 4.92965 0 6.78018 0 8.74797C0 10.7106 0.76978 12.5612 2.1615 13.9529L11.3428 23.1291ZM3.04343 4.42496C4.19555 3.27284 5.73002 2.63561 7.36134 2.63561C8.99266 2.63561 10.5322 3.27284 11.6894 4.43006L12.0667 4.8073C12.1839 4.92456 12.342 4.99083 12.5102 4.99083C12.6733 4.99083 12.8365 4.92456 12.9537 4.8073L13.3208 4.44026C14.478 3.28304 16.0124 2.6458 17.6489 2.6458C19.2802 2.6458 20.8146 3.28304 21.9668 4.43516C23.124 5.59238 23.7561 7.12684 23.7561 8.75816C23.7561 10.3895 23.1189 11.9239 21.9617 13.0812L12.7957 22.2471C12.6478 22.395 12.3777 22.395 12.2247 22.2471L3.04853 13.071C1.89131 11.9137 1.25408 10.3793 1.25408 8.74797C1.25408 7.11664 1.89131 5.58218 3.04343 4.42496Z" fill="black" stroke="black" stroke-width="0.3"/>
</g>
<defs>
<clipPath id="clip0_5_35">
<rect width="25" height="25" fill="white"/>
</clipPath>
</defs>
</svg>
